<svg width="155px" height="40px" viewBox="0 0 155 40" version="1.1" xmlns="http://www.w3.org/2000/svg" xmlns:xlink="http://www.w3.org/1999/xlink"><script xmlns="" type="text/javascript"/><defs><polygon id="a" points="0 40 154.461538 40 154.461538 0 0 0"/></defs><g stroke="none" stroke-width="1" fill="none" fill-rule="evenodd"><g transform="translate(-1420.000000, -921.000000)"><g transform="translate(-99.000000, -3.000000)"><g transform="translate(1519.245604, 924.000000)"><path d="M54.5010109,12.5808885 C54.7418499,14.7147506 55.923518,15.5582041 58.3829248,15.5582041 C60.166856,15.5582041 61.7344628,14.9135111 61.7344628,13.2753568 C61.7344628,11.5383337 60.0949687,11.19127 57.4666103,10.5707828 C54.3804258,9.85108592 51.5592636,9.0076325 51.5592636,5.31027909 C51.5592636,1.8113452 54.3320592,0 58.1656065,0 C62.0478516,0 64.555625,1.9603303 64.8206473,5.53358628 L61.4691092,5.53358628 C61.2763055,3.74678783 59.926017,2.85355906 58.1417545,2.85355906 C56.2607589,2.85355906 55.0313868,3.67246574 55.0313868,4.9379868 C55.0313868,6.37738063 56.2369069,6.79910734 58.7927155,7.36981915 C62.3370572,8.16383816 65.2307692,9.03252018 65.2307692,12.8536301 C65.2307692,16.4517737 62.4096071,18.4615385 58.5273619,18.4615385 C53.8497187,18.4615385 51.1975082,16.3276763 51.0769231,12.5808885 L54.5010109,12.5808885 Z" fill="#FFF"/><path d="M75.2052635,13.825574 L75.2052635,11.9760727 C74.6193737,12.3120456 73.7165602,12.5044545 72.8865217,12.6965333 C71.1533343,13.0806909 70.2988139,13.4651786 70.2988139,14.6179817 C70.2988139,15.7714447 71.0798884,16.1796948 72.251668,16.1796948 C74.1555583,16.1796948 75.2052635,15.0265617 75.2052635,13.825574 M75.1318177,16.804116 C74.4976348,17.7407478 73.5941505,18.4615385 71.4461115,18.4615385 C68.8828856,18.4615385 67.0769231,17.1404189 67.0769231,14.6902587 C67.0769231,11.9760727 69.3225545,11.1110579 72.1054471,10.7265702 C74.1800402,10.4384519 75.1318177,10.2704654 75.1318177,9.33350359 C75.1318177,8.44472646 74.4241889,7.86815993 73.0327426,7.86815993 C71.4705934,7.86815993 70.7136654,8.42063409 70.616073,9.59752947 L67.6628129,9.59752947 C67.7604053,7.43614758 69.3960003,5.53846154 73.0572246,5.53846154 C76.8163766,5.53846154 78.3295619,7.19555399 78.3295619,10.0783866 L78.3295619,16.3480113 C78.3295619,17.2843131 78.4761182,17.8371172 78.7692308,18.0532884 L78.7692308,18.1734202 L75.5714866,18.1734202 C75.3763018,17.9331567 75.2542274,17.3565901 75.1807816,16.804116 L75.1318177,16.804116 Z" fill="#FFF"/><mask id="b" fill="#fff"><use xlink:href="#a"/></mask><g/><polygon fill="#FFF" mask="url(#b)" points="80.6153846 17.8461538 83.6923077 17.8461538 83.6923077 0.615384615 80.6153846 0.615384615"/><path d="M85.5384615,5.17513649 L87.3158317,5.17513649 L87.3158317,1.23076923 L90.6453055,1.23076923 L90.6453055,5.17513649 L92.8481027,5.17513649 L92.8481027,7.39388542 L90.6453055,7.39388542 L90.6453055,14.099242 C90.6453055,15.035716 91.1708128,15.3564541 91.9219305,15.3564541 C92.3473576,15.3564541 92.9230769,15.3313911 92.9230769,15.3313911 L92.9230769,17.7967053 C92.9230769,17.7967053 92.1471971,17.8461538 90.7952539,17.8461538 C89.14307,17.8461538 87.3158317,17.205355 87.3158317,14.8138749 L87.3158317,7.39388542 L85.5384615,7.39388542 L85.5384615,5.17513649 Z" fill="#FFF" mask="url(#b)"/><path d="M94.1538462,5.53846154 L97.535519,5.53846154 L99.0886932,11.248474 C99.3643618,12.2561232 99.6648097,13.5518606 99.6648097,13.5518606 L99.7147122,13.5518606 C99.7147122,13.5518606 99.9903809,12.2323906 100.266049,11.2244117 L101.869126,5.53846154 L104.774488,5.53846154 L106.452935,11.2244117 C106.728603,12.2561232 107.054174,13.5518606 107.054174,13.5518606 L107.104421,13.5518606 C107.104421,13.5518606 107.404869,12.2561232 107.680538,11.248474 L109.308738,5.53846154 L112.615385,5.53846154 L108.782524,17.8461538 L105.67652,17.8461538 L103.972949,11.8002583 C103.697625,10.8166714 103.396833,9.66530767 103.396833,9.66530767 L103.34693,9.66530767 C103.34693,9.66530767 103.021359,10.8166714 102.745691,11.8002583 L100.992218,17.8461538 L97.9113369,17.8461538 L94.1538462,5.53846154 Z" fill="#FFF" mask="url(#b)"/><path d="M120.743725,13.825574 L120.743725,11.9760727 C120.157835,12.3120456 119.255022,12.5044545 118.424983,12.6965333 C116.691796,13.0806909 115.837275,13.4651786 115.837275,14.6179817 C115.837275,15.7714447 116.61835,16.1796948 117.79013,16.1796948 C119.69402,16.1796948 120.743725,15.0265617 120.743725,13.825574 M120.719243,16.804116 L120.670279,16.804116 C120.036096,17.7407478 119.132612,18.4615385 116.984573,18.4615385 C114.421347,18.4615385 112.615385,17.1404189 112.615385,14.6902587 C112.615385,11.9760727 114.861016,11.1110579 117.643909,10.7265702 C119.718502,10.4384519 120.670279,10.2704654 120.670279,9.33350359 C120.670279,8.44472646 119.96265,7.86815993 118.571204,7.86815993 C117.009055,7.86815993 116.252127,8.42063409 116.154535,9.59752947 L113.201274,9.59752947 C113.298867,7.43614758 114.934462,5.53846154 118.595686,5.53846154 C122.354838,5.53846154 123.868023,7.19555399 123.868023,10.0783866 L123.868023,16.3480113 C123.868023,17.2843131 124.01458,17.8371172 124.307692,18.0532884 L124.307692,18.1734202 L121.109948,18.1734202 C120.914763,17.9331567 120.792689,17.3565901 120.719243,16.804116" fill="#FFF" mask="url(#b)"/><path d="M124.923077,5.17513649 L126.700447,5.17513649 L126.700447,1.23076923 L130.029921,1.23076923 L130.029921,5.17513649 L132.232718,5.17513649 L132.232718,7.39388542 L130.029921,7.39388542 L130.029921,14.099242 C130.029921,15.035716 130.555428,15.3564541 131.306546,15.3564541 C131.731973,15.3564541 132.307692,15.3313911 132.307692,15.3313911 L132.307692,17.7967053 C132.307692,17.7967053 131.531812,17.8461538 130.179869,17.8461538 C128.527685,17.8461538 126.700447,17.205355 126.700447,14.8138749 L126.700447,7.39388542 L124.923077,7.39388542 L124.923077,5.17513649 Z" fill="#FFF" mask="url(#b)"/><path d="M137.461607,10.6645815 L143.007404,10.6645815 C142.910157,9.11508335 141.864492,8.04190025 140.356316,8.04190025 C138.604854,8.04190025 137.753685,9.06725529 137.461607,10.6645815 M134.153846,11.9759222 C134.153846,8.35179989 136.65923,5.53846154 140.307859,5.53846154 C144.320751,5.53846154 146.461538,8.54245696 146.461538,12.9059487 L137.412816,12.9059487 C137.656437,14.7895881 138.726497,15.9577722 140.599603,15.9577722 C141.888554,15.9577722 142.642474,15.3854734 143.007404,14.4557744 L146.267043,14.4557744 C145.804865,16.6253995 143.834512,18.4615385 140.623664,18.4615385 C136.488795,18.4615385 134.153846,15.6242861 134.153846,11.9759222" fill="#FFF" mask="url(#b)"/><path d="M151.005204,7.11426971 L151.081295,7.11426971 C151.865133,5.66989564 152.750078,4.92307692 154.267374,4.92307692 C154.646438,4.92307692 154.874362,4.94805071 155.076923,5.02262994 L155.076923,7.98595734 L155.000832,7.98595734 C152.750078,7.76187751 151.131675,8.9318821 151.131675,11.6211821 L151.131675,17.8461538 L147.692308,17.8461538 L147.692308,5.0722354 L151.005204,5.0722354 L151.005204,7.11426971 Z" fill="#FFF" mask="url(#b)"/><path d="M64.3173047,37.2456507 L64.2687503,37.2456507 C63.0828261,39.280644 61.4609101,40 59.4036675,40 C56.7893797,40 54.7560817,39.0321082 53.3280507,37.4195235 C51.8996871,35.7817101 51.0769231,33.4988629 51.0769231,30.8184947 C51.0769231,27.8657259 52.0935721,25.2852494 53.9087079,23.5731139 C55.3127943,22.2578175 57.1525399,21.5384615 59.4761665,21.5384615 C63.8330911,21.5384615 66.3263255,23.9948406 66.8830381,27.4688869 L63.4459863,27.4688869 C63.0585489,25.7567514 61.7755159,24.5157771 59.5486655,24.5157771 C56.2812215,24.5157771 54.6593055,27.2950141 54.6593055,30.8184947 C54.6593055,34.441526 56.5229957,37.0966656 59.5004437,37.0966656 C62.1872305,37.0966656 63.9541445,35.0371255 63.9541445,33.0767952 L63.9541445,32.9775855 L59.7911049,32.9775855 L59.7911049,30.1983485 L67.0769231,30.1983485 L67.0769231,39.6277077 L64.4383581,39.6277077 L64.3173047,37.2456507 Z" fill="#FFF" mask="url(#b)"/><path d="M77.666802,35.3640355 L77.666802,33.5145342 C77.0809122,33.8505071 76.1780986,34.042916 75.3480602,34.2349948 C73.6148727,34.6191525 72.7603523,35.0036402 72.7603523,36.1564432 C72.7603523,37.3099063 73.5414269,37.7181563 74.7132065,37.7181563 C76.6170968,37.7181563 77.666802,36.5650232 77.666802,35.3640355 M77.64232,38.3425775 L77.5933562,38.3425775 C76.9591732,39.2792093 76.0556889,40 73.9076499,40 C71.344424,40 69.5384615,38.6788805 69.5384615,36.2287203 C69.5384615,33.5145342 71.7840929,32.6495194 74.5669856,32.2650317 C76.6415787,31.9769135 77.5933562,31.808927 77.5933562,30.8719651 C77.5933562,29.983188 76.8857274,29.4066215 75.4942811,29.4066215 C73.9321319,29.4066215 73.1752039,29.9590956 73.0776115,31.135991 L70.1243513,31.135991 C70.2219437,28.9746091 71.8575387,27.0769231 75.518763,27.0769231 C79.2779151,27.0769231 80.7911004,28.7340155 80.7911004,31.6168482 L80.7911004,37.8864728 C80.7911004,38.8227746 80.9376567,39.3755788 81.2307692,39.59175 L81.2307692,39.7118818 L78.033025,39.7118818 C77.8378402,39.4716182 77.7157659,38.8950517 77.64232,38.3425775" fill="#FFF" mask="url(#b)"/><path d="M82.4615385,26.8048466 L85.6861949,26.8048466 L85.6861949,28.4967934 L85.7602588,28.4967934 C86.449155,27.3445716 87.6801723,26.4615385 89.4279462,26.4615385 C91.0275922,26.4615385 92.3076472,27.3445716 92.9231558,28.6686159 L92.9721936,28.6686159 C93.8339057,27.2953832 95.1629985,26.4615385 96.7629827,26.4615385 C99.4211683,26.4615385 100.923077,28.1780794 100.923077,30.9248818 L100.923077,39.3846154 L97.5753188,39.3846154 L97.5753188,31.4885271 C97.5753188,30.0664429 96.8613964,29.3306381 95.6307174,29.3306381 C94.2275606,29.3306381 93.3661868,30.409751 93.3661868,32.0771036 L93.3661868,39.3846154 L90.0184286,39.3846154 L90.0184286,31.4885271 C90.0184286,30.0664429 89.3045063,29.3306381 88.0741654,29.3306381 C86.7200464,29.3306381 85.8092966,30.409751 85.8092966,32.0771036 L85.8092966,39.3846154 L82.4615385,39.3846154 L82.4615385,26.8048466 Z" fill="#FFF" mask="url(#b)"/><path d="M106.076992,32.2030431 L111.622789,32.2030431 C111.525541,30.6535449 110.479877,29.5803618 108.971701,29.5803618 C107.220238,29.5803618 106.36907,30.6057168 106.076992,32.2030431 M102.769231,33.5143837 C102.769231,29.8902614 105.274614,27.0769231 108.923244,27.0769231 C112.936135,27.0769231 115.076923,30.0809185 115.076923,34.4444102 L106.028201,34.4444102 C106.271822,36.3280497 107.341882,37.4962337 109.214987,37.4962337 C110.503938,37.4962337 111.257859,36.9239349 111.622789,35.994236 L114.882428,35.994236 C114.42025,38.163861 112.449896,40 109.239049,40 C105.10418,40 102.769231,37.1627476 102.769231,33.5143837" fill="#FFF" mask="url(#b)"/><path d="M116.923077,35.6843363 L119.983832,35.6843363 C120.202434,37.0910055 121.222685,37.7111324 122.704503,37.7111324 C124.161958,37.7111324 124.987971,37.1627476 124.987971,36.3044632 C124.987971,35.1359516 123.409034,35.016709 121.708615,34.6828953 C119.473873,34.2537531 117.287524,33.6575403 117.287524,30.987031 C117.287524,28.3404357 119.522266,27.0769231 122.364419,27.0769231 C125.643776,27.0769231 127.465678,28.6745769 127.708309,31.1301876 L124.720643,31.1301876 C124.575132,29.8188469 123.724755,29.3418767 122.315693,29.3418767 C121.028447,29.3418767 120.178404,29.8188469 120.178404,30.7010454 C120.178404,31.7499868 121.830097,31.8453154 123.603273,32.2030431 C125.692169,32.6325129 128,33.2048117 128,36.0656505 C128,38.5215887 125.862377,40 122.75323,40 C119.133789,40 117.117649,38.2834312 116.923077,35.6843363" fill="#FFF" mask="url(#b)"/><g mask="url(#b)" fill="#FFF"><g transform="translate(0.000000, 1.230769)"><path d="M37.5384615,12.8768133 L37.5374202,12.8768133 C37.5259653,8.44732732 36.716489,4.11543386 35.1284299,-1.77635684e-15 L29.5384615,2.04235201 C30.8797207,5.51617397 31.561458,9.17775183 31.5670119,12.92409 C31.561458,16.668402 30.8797207,20.3299799 29.5384615,23.8041395 L35.1284299,25.8461538 C36.716489,21.73072 37.5259653,17.3988265 37.5374202,12.9713667 L37.5384615,12.9713667 C37.5384615,12.9554952 37.5381144,12.9399614 37.5377673,12.92409 C37.5381144,12.9082185 37.5384615,12.8926848 37.5384615,12.8768133"/><path d="M14.7692308,26.6052674 L18.8912624,30.7692308 C23.7721518,25.8404019 26.4615385,19.2839229 26.4615385,12.3076923 L20.6313142,12.3076923 C20.6313142,17.7100256 18.5496238,22.7884722 14.7692308,26.6052674"/><path d="M8.3509654,16.6153846 C7.90092522,17.6023226 7.28273816,18.515174 6.49409631,19.3059812 L6.49508541,19.3069734 L6.49475571,19.3066427 C4.76119434,21.0456908 2.45527417,22.0031926 0,22.0031926 L0,27.6923077 C3.92078963,27.6923077 7.60716273,26.1775035 10.3993901,23.4293576 L10.4013683,23.4313421 C10.4155453,23.4174508 10.4287333,23.4022367 10.4429104,23.3880147 C10.4630221,23.3678394 10.4844526,23.3493177 10.5045643,23.3291424 L10.501597,23.3261657 C11.7511591,22.0478429 12.8276288,20.4893806 13.5384615,18.9090892 L8.3509654,16.6153846 Z"/></g></g></g></g></g></g></svg>